<svg width="108" height="96" viewBox="0 0 108 96" fill="none" xmlns="http://www.w3.org/2000/svg">
<mask id="mask0_486_516" style="mask-type:alpha" maskUnits="userSpaceOnUse" x="0" y="0" width="108" height="50">
<rect x="1.2113" y="0.8125" width="105.989" height="46.4742" transform="rotate(1 1.2113 0.8125)" fill="#C4C4C4"/>
</mask>
<g mask="url(#mask0_486_516)">
<path d="M12.8301 45.3475L12.4485 67.2065L6.01111 67.0941L6.86064 18.4243L21.9992 18.6886L21.8868 25.126L13.1857 24.9741L12.9425 38.9101L21.6436 39.062L21.5312 45.4994L12.8301 45.3475Z" fill="white"/>
<path d="M26.0079 19.5369L32.3039 19.6468L31.5778 61.2425L41.1278 61.4092L41.0179 67.7051L25.172 67.4285L26.0079 19.5369Z" fill="white"/>
<path d="M50.9034 67.8777L44.5367 67.7666L45.3727 19.8749L51.7394 19.9861L50.9034 67.8777Z" fill="white"/>
<path d="M71.8123 68.2427L72.4816 29.9011C72.4981 28.9578 72.1815 28.1739 71.532 27.5493C70.9304 26.8784 70.158 26.5347 69.2148 26.5182C68.2716 26.5017 67.4877 26.8183 66.8631 27.4678C66.2393 28.0702 65.9192 28.843 65.9027 29.7862L65.2334 68.1278L58.8668 68.0167L59.7039 20.0543L66.0706 20.1655L66.0595 20.8021C67.1045 20.3958 68.1929 20.2025 69.3247 20.2223C70.598 20.2445 71.7965 20.5013 72.9202 20.9926C74.0909 21.4848 75.0934 22.1628 75.9274 23.0265C76.8087 23.891 77.4984 24.9173 77.9966 26.1054C78.5419 27.2943 78.8022 28.5961 78.7775 30.011L78.1083 68.3526L71.8123 68.2427Z" fill="white"/>
<path d="M83.0217 20.6029L101.485 20.9251L102.579 27.1713L95.2927 27.0442L94.5666 68.6398L88.2707 68.5299L88.9967 26.9343L81.6397 26.8058L83.0217 20.6029Z" fill="white"/>
<path d="M34.0426 14.8555L43.4323 15.0186L43.5016 15.0205L43.5006 15.0898L43.4791 16.3379L43.4781 16.4072L43.4088 16.4062L34.0182 16.2422L33.9489 16.2412L33.9498 16.1719L33.9713 14.9229L33.9733 14.8535L34.0426 14.8555ZM62.861 10.4746L63.4147 11.5937L63.4449 11.6553L63.3824 11.6865L54.9655 15.8525L54.903 15.8828L54.8727 15.8203L54.319 14.7021L54.2877 14.6396L54.3502 14.6084L62.7672 10.4434L62.8297 10.4121L62.861 10.4746ZM37.1315 7.71387L45.3619 12.2373L45.4225 12.2705L45.3893 12.3311L44.7877 13.4258L44.7545 13.4863L44.694 13.4531L36.4635 8.92969L36.403 8.89551L36.4362 8.83496L37.0377 7.74121L37.0709 7.67969L37.1315 7.71387ZM57.7106 4.12109L58.7399 4.82715L58.7975 4.86621L58.7584 4.92383L53.4489 12.6709L53.4098 12.7285L53.3531 12.6885L52.3229 11.9834L52.2653 11.9443L52.3053 11.8867L57.6139 4.13965L57.653 4.08203L57.7106 4.12109ZM43.4342 2.81055L48.0211 11.0059L48.0553 11.0664L47.9948 11.1006L46.9049 11.71L46.8444 11.7441L46.8102 11.6836L42.2242 3.4873L42.1901 3.42773L42.2506 3.39355L43.3405 2.7832L43.401 2.75L43.4342 2.81055ZM49.8727 1.51758L51.1207 1.56348L51.1901 1.56641L51.1871 1.63574L50.8414 11.0215L50.8385 11.0908L50.7692 11.0879L49.5221 11.042L49.4528 11.0391L49.4547 10.9697L49.8014 1.58398L49.8033 1.51465L49.8727 1.51758Z" fill="#AB151B" stroke="#AB151B" stroke-width="0.138729"/>
</g>
<mask id="mask1_486_516" style="mask-type:alpha" maskUnits="userSpaceOnUse" x="0" y="46" width="108" height="50">
<rect x="1.6272" y="46.8704" width="105.989" height="46.4742" transform="rotate(1 1.6272 46.8704)" fill="#C4C4C4"/>
</mask>
<g mask="url(#mask1_486_516)">
<path d="M12.0392 45.3646L11.6576 67.2235L5.22021 67.1112L6.06975 18.4414L21.2083 18.7057L21.0959 25.1431L12.3948 24.9912L12.1516 38.9272L20.8527 39.079L20.7403 45.5165L12.0392 45.3646Z" fill="white"/>
<path d="M25.217 19.554L31.513 19.6639L30.7869 61.2596L40.3369 61.4263L40.227 67.7222L24.3811 67.4456L25.217 19.554Z" fill="white"/>
<path d="M50.1125 67.8948L43.7458 67.7836L44.5818 19.892L50.9485 20.0032L50.1125 67.8948Z" fill="white"/>
<path d="M71.0215 68.2597L71.6907 29.9181C71.7072 28.9749 71.3906 28.191 70.7411 27.5664C70.1395 26.8955 69.3671 26.5518 68.4239 26.5353C67.4807 26.5188 66.6968 26.8354 66.0722 27.4849C65.4484 28.0873 65.1283 28.8601 65.1118 29.8033L64.4425 68.1449L58.0759 68.0338L58.913 20.0714L65.2797 20.1825L65.2686 20.8192C66.3136 20.4129 67.402 20.2196 68.5338 20.2393C69.8072 20.2616 71.0056 20.5184 72.1293 21.0097C73.3 21.5019 74.3025 22.1799 75.1365 23.0436C76.0178 23.9081 76.7075 24.9344 77.2057 26.1225C77.751 27.3114 78.0114 28.6132 77.9867 30.028L77.3174 68.3696L71.0215 68.2597Z" fill="white"/>
<path d="M82.2308 20.6199L100.694 20.9422L101.788 27.1884L94.5018 27.0612L93.7757 68.6569L87.4798 68.547L88.2058 26.9513L80.8488 26.8229L82.2308 20.6199Z" fill="white"/>
</g>
</svg>
